<mxfile host="app.diagrams.net" modified="2022-05-19T20:36:21.840Z" agent="5.0 (Windows NT 10.0; Win64; x64) AppleWebKit/537.36 (KHTML, like Gecko) Chrome/101.0.4951.64 Safari/537.36 Edg/101.0.1210.47" etag="RhIHkqekdiuIX-p8l5W6" version="18.0.7" type="github">
  <diagram id="postyQS0ApK0Pr7AsZq3" name="Page-1">
    <mxGraphModel dx="1000" dy="1234" grid="1" gridSize="10" guides="1" tooltips="1" connect="1" arrows="1" fold="1" page="1" pageScale="1" pageWidth="850" pageHeight="1100" math="0" shadow="0">
      <root>
        <mxCell id="0" />
        <mxCell id="1" parent="0" />
        <mxCell id="KeqOf8aJPBo48SKVLla0-10" style="edgeStyle=orthogonalEdgeStyle;rounded=0;orthogonalLoop=1;jettySize=auto;html=1;exitX=0.5;exitY=1;exitDx=0;exitDy=0;entryX=0.5;entryY=0;entryDx=0;entryDy=0;" edge="1" parent="1" source="KeqOf8aJPBo48SKVLla0-1" target="KeqOf8aJPBo48SKVLla0-3">
          <mxGeometry relative="1" as="geometry" />
        </mxCell>
        <mxCell id="KeqOf8aJPBo48SKVLla0-1" value="Початок" style="ellipse;whiteSpace=wrap;html=1;aspect=fixed;" vertex="1" parent="1">
          <mxGeometry x="385" width="80" height="80" as="geometry" />
        </mxCell>
        <mxCell id="KeqOf8aJPBo48SKVLla0-2" value="Sad End" style="ellipse;whiteSpace=wrap;html=1;aspect=fixed;direction=south;" vertex="1" parent="1">
          <mxGeometry x="60" y="360" width="80" height="80" as="geometry" />
        </mxCell>
        <mxCell id="KeqOf8aJPBo48SKVLla0-9" style="edgeStyle=orthogonalEdgeStyle;rounded=0;orthogonalLoop=1;jettySize=auto;html=1;exitX=0.5;exitY=1;exitDx=0;exitDy=0;entryX=0.5;entryY=0;entryDx=0;entryDy=0;" edge="1" parent="1" source="KeqOf8aJPBo48SKVLla0-3" target="KeqOf8aJPBo48SKVLla0-7">
          <mxGeometry relative="1" as="geometry" />
        </mxCell>
        <mxCell id="KeqOf8aJPBo48SKVLla0-3" value="&lt;span lang=&quot;RU&quot;&gt;Ініціалізація клієнта&amp;nbsp;&lt;/span&gt;" style="rounded=0;whiteSpace=wrap;html=1;" vertex="1" parent="1">
          <mxGeometry x="365" y="100" width="120" height="60" as="geometry" />
        </mxCell>
        <mxCell id="KeqOf8aJPBo48SKVLla0-6" style="edgeStyle=orthogonalEdgeStyle;rounded=0;orthogonalLoop=1;jettySize=auto;html=1;exitX=0.5;exitY=1;exitDx=0;exitDy=0;entryX=0;entryY=0.5;entryDx=0;entryDy=0;" edge="1" parent="1" source="KeqOf8aJPBo48SKVLla0-5" target="KeqOf8aJPBo48SKVLla0-2">
          <mxGeometry relative="1" as="geometry" />
        </mxCell>
        <mxCell id="KeqOf8aJPBo48SKVLla0-5" value="Прийдіть через &quot;n&quot; років&lt;br&gt;(n = 18 - вік клієнта)" style="rounded=0;whiteSpace=wrap;html=1;" vertex="1" parent="1">
          <mxGeometry x="40" y="220" width="120" height="60" as="geometry" />
        </mxCell>
        <mxCell id="KeqOf8aJPBo48SKVLla0-8" value="Ні" style="edgeStyle=orthogonalEdgeStyle;rounded=0;orthogonalLoop=1;jettySize=auto;html=1;exitX=0;exitY=0.5;exitDx=0;exitDy=0;entryX=1;entryY=0.5;entryDx=0;entryDy=0;" edge="1" parent="1" source="KeqOf8aJPBo48SKVLla0-7" target="KeqOf8aJPBo48SKVLla0-5">
          <mxGeometry relative="1" as="geometry" />
        </mxCell>
        <mxCell id="KeqOf8aJPBo48SKVLla0-12" value="Так" style="edgeStyle=orthogonalEdgeStyle;rounded=0;orthogonalLoop=1;jettySize=auto;html=1;exitX=0.5;exitY=1;exitDx=0;exitDy=0;entryX=0.5;entryY=0;entryDx=0;entryDy=0;" edge="1" parent="1" source="KeqOf8aJPBo48SKVLla0-7" target="KeqOf8aJPBo48SKVLla0-11">
          <mxGeometry relative="1" as="geometry" />
        </mxCell>
        <mxCell id="KeqOf8aJPBo48SKVLla0-7" value="18 років Є?" style="rhombus;whiteSpace=wrap;html=1;" vertex="1" parent="1">
          <mxGeometry x="385" y="210" width="80" height="80" as="geometry" />
        </mxCell>
        <mxCell id="KeqOf8aJPBo48SKVLla0-14" style="edgeStyle=orthogonalEdgeStyle;rounded=0;orthogonalLoop=1;jettySize=auto;html=1;exitX=0.5;exitY=1;exitDx=0;exitDy=0;entryX=0.5;entryY=0;entryDx=0;entryDy=0;" edge="1" parent="1" source="KeqOf8aJPBo48SKVLla0-11" target="KeqOf8aJPBo48SKVLla0-13">
          <mxGeometry relative="1" as="geometry" />
        </mxCell>
        <mxCell id="KeqOf8aJPBo48SKVLla0-11" value="Ініціалізація авто" style="rounded=0;whiteSpace=wrap;html=1;" vertex="1" parent="1">
          <mxGeometry x="365" y="380" width="120" height="60" as="geometry" />
        </mxCell>
        <mxCell id="KeqOf8aJPBo48SKVLla0-16" value="Так" style="edgeStyle=orthogonalEdgeStyle;rounded=0;orthogonalLoop=1;jettySize=auto;html=1;exitX=1;exitY=0.5;exitDx=0;exitDy=0;entryX=0;entryY=0.5;entryDx=0;entryDy=0;" edge="1" parent="1" source="KeqOf8aJPBo48SKVLla0-13" target="KeqOf8aJPBo48SKVLla0-17">
          <mxGeometry relative="1" as="geometry">
            <Array as="points" />
          </mxGeometry>
        </mxCell>
        <mxCell id="KeqOf8aJPBo48SKVLla0-24" value="" style="edgeStyle=orthogonalEdgeStyle;rounded=0;orthogonalLoop=1;jettySize=auto;html=1;" edge="1" parent="1" source="KeqOf8aJPBo48SKVLla0-13" target="KeqOf8aJPBo48SKVLla0-21">
          <mxGeometry relative="1" as="geometry" />
        </mxCell>
        <mxCell id="KeqOf8aJPBo48SKVLla0-13" value="Гроші Є?" style="rhombus;whiteSpace=wrap;html=1;" vertex="1" parent="1">
          <mxGeometry x="385" y="480" width="80" height="80" as="geometry" />
        </mxCell>
        <mxCell id="KeqOf8aJPBo48SKVLla0-15" value="Happy End" style="ellipse;whiteSpace=wrap;html=1;aspect=fixed;" vertex="1" parent="1">
          <mxGeometry x="740" y="480" width="80" height="80" as="geometry" />
        </mxCell>
        <mxCell id="KeqOf8aJPBo48SKVLla0-18" style="edgeStyle=orthogonalEdgeStyle;rounded=0;orthogonalLoop=1;jettySize=auto;html=1;exitX=1;exitY=0.5;exitDx=0;exitDy=0;entryX=0;entryY=0.5;entryDx=0;entryDy=0;" edge="1" parent="1" source="KeqOf8aJPBo48SKVLla0-17" target="KeqOf8aJPBo48SKVLla0-15">
          <mxGeometry relative="1" as="geometry" />
        </mxCell>
        <mxCell id="KeqOf8aJPBo48SKVLla0-17" value="Завернуть авто і привітати" style="rounded=0;whiteSpace=wrap;html=1;" vertex="1" parent="1">
          <mxGeometry x="560" y="490" width="120" height="60" as="geometry" />
        </mxCell>
        <mxCell id="KeqOf8aJPBo48SKVLla0-27" style="edgeStyle=orthogonalEdgeStyle;rounded=0;orthogonalLoop=1;jettySize=auto;html=1;exitX=1;exitY=0.5;exitDx=0;exitDy=0;entryX=0.5;entryY=1;entryDx=0;entryDy=0;" edge="1" parent="1" source="KeqOf8aJPBo48SKVLla0-19" target="KeqOf8aJPBo48SKVLla0-17">
          <mxGeometry relative="1" as="geometry" />
        </mxCell>
        <mxCell id="KeqOf8aJPBo48SKVLla0-19" value="Оформлення на 3 роки кредиту і виведення платежу" style="rounded=0;whiteSpace=wrap;html=1;" vertex="1" parent="1">
          <mxGeometry x="365" y="730" width="120" height="60" as="geometry" />
        </mxCell>
        <mxCell id="KeqOf8aJPBo48SKVLla0-23" value="Так" style="edgeStyle=orthogonalEdgeStyle;rounded=0;orthogonalLoop=1;jettySize=auto;html=1;" edge="1" parent="1" source="KeqOf8aJPBo48SKVLla0-21" target="KeqOf8aJPBo48SKVLla0-19">
          <mxGeometry relative="1" as="geometry" />
        </mxCell>
        <mxCell id="KeqOf8aJPBo48SKVLla0-25" value="Ні" style="edgeStyle=orthogonalEdgeStyle;rounded=0;orthogonalLoop=1;jettySize=auto;html=1;exitX=0;exitY=0.5;exitDx=0;exitDy=0;entryX=1;entryY=0.5;entryDx=0;entryDy=0;" edge="1" parent="1" source="KeqOf8aJPBo48SKVLla0-21" target="KeqOf8aJPBo48SKVLla0-2">
          <mxGeometry relative="1" as="geometry" />
        </mxCell>
        <mxCell id="KeqOf8aJPBo48SKVLla0-21" value="Чи готовий на кредит?" style="rhombus;whiteSpace=wrap;html=1;" vertex="1" parent="1">
          <mxGeometry x="343" y="590" width="165" height="90" as="geometry" />
        </mxCell>
      </root>
    </mxGraphModel>
  </diagram>
</mxfile>
